<svg viewBox="0 0 512 512" xmlns="http://www.w3.org/2000/svg" xmlns:xlink="http://www.w3.org/1999/xlink"><linearGradient id="a" gradientTransform="matrix(1 0 0 -1 0 -10886)" gradientUnits="userSpaceOnUse" x1="0" x2="512" y1="-11142" y2="-11142"><stop offset="0" stop-color="#00f1ff"/><stop offset=".231" stop-color="#00d8ff"/><stop offset=".5138" stop-color="#00c0ff"/><stop offset=".7773" stop-color="#00b2ff"/><stop offset="1" stop-color="#00adff"/></linearGradient><path d="m512 256c0 141.386719-114.613281 256-256 256s-256-114.613281-256-256 114.613281-256 256-256 256 114.613281 256 256zm0 0" fill="url(#a)"/><path d="m200.691406 441.507812c-6.300781 0-12.652344-1.976562-18.230468-6.003906-12.53125-9.035156-16.511719-25.019531-9.6875-38.875l49.601562-101.765625h-49.320312c-17.863282 0-34.101563-9.09375-43.433594-24.324219-9.335938-15.226562-10.066406-33.820312-1.960938-49.734374l71.550782-141.089844c2.554687-5.039063 7.726562-8.214844 13.378906-8.214844h136.570312c5.398438 0 10.378906 2.898438 13.042969 7.59375 2.667969 4.691406 2.605469 10.457031-.15625 15.089844l-57.636719 96.640625h48.03125c14.050782 0 26.398438 7.875 32.222656 20.558593 5.847657 12.726563 3.765626 27.289063-5.433593 38-5.398438 6.285157-14.871094 7.003907-21.152344 1.605469-6.285156-5.398437-7.003906-14.871093-1.605469-21.152343 2.070313-2.414063 1.472656-4.753907.929688-5.933594-.527344-1.148438-1.875-3.078125-4.960938-3.078125h-74.441406c-5.394531 0-10.378906-2.898438-13.042969-7.59375-2.664062-4.691407-2.605469-10.457031.160157-15.089844l57.632812-96.640625h-100.949219l-67.398437 132.894531c-3.390625 6.664063-3.097656 14.117188.796875 20.46875 3.894531 6.355469 10.402343 10 17.851562 10h73.320313c5.171875 0 9.980468 2.664063 12.71875 7.046875 2.742187 4.386719 3.03125 9.875.765625 14.523438l-60.144531 123.394531c-.253907.519531-.261719.730469-.261719.730469.097656.363281.890625.949218 1.335937.941406-.003906 0 .097656-.042969.277344-.1875l110.898438-127.628906c5.433593-6.253906 14.90625-6.917969 21.160156-1.484375 6.253906 5.433593 6.917968 14.90625 1.484375 21.160156l-111.414063 128.222656c-.25.289063-.515625.570313-.785156.839844-6.097656 6.015625-13.867188 9.085937-21.714844 9.085937zm0 0" fill="#fff"/></svg>